<svg width="37" height="30" viewBox="0 0 37 30" fill="none" xmlns="http://www.w3.org/2000/svg">
<path d="M3.4082 29.1367L0.773438 25.8086C2.6224 24.7917 4.19401 23.7285 5.48828 22.6191C6.78255 21.4635 7.8457 20.1693 8.67773 18.7363C9.41732 17.4421 9.92578 16.1478 10.2031 14.8535C10.5267 13.513 10.6885 11.9414 10.6885 10.1387L13.8779 12.6348H3.13086C2.85352 8.42839 3.26953 4.7998 4.37891 1.74902C5.81185 1.24056 7.49902 0.986328 9.44043 0.986328C14.8024 0.986328 17.4834 3.89844 17.4834 9.72266C17.4834 13.7904 16.1429 17.6732 13.4619 21.3711C10.7809 25.069 7.42969 27.6576 3.4082 29.1367ZM22.8223 29.1367L20.1875 25.8086C22.0365 24.7917 23.6081 23.7285 24.9023 22.6191C26.1966 21.4635 27.2598 20.1693 28.0918 18.7363C28.8314 17.4421 29.3398 16.1478 29.6172 14.8535C29.9408 13.513 30.1025 11.9414 30.1025 10.1387L33.292 12.6348H22.5449C22.2676 8.42839 22.6836 4.7998 23.793 1.74902C25.2259 1.24056 26.9131 0.986328 28.8545 0.986328C34.2165 0.986328 36.8975 3.89844 36.8975 9.72266C36.8975 13.7904 35.557 17.6732 32.876 21.3711C30.195 25.069 26.8438 27.6576 22.8223 29.1367Z" fill="#346839"/>
</svg>
