<svg width="37" height="29" viewBox="0 0 37 29" fill="none" xmlns="http://www.w3.org/2000/svg">
<path d="M34.3428 0.599609L36.9775 3.92773C35.1286 4.94466 33.557 6.00781 32.2627 7.11719C30.9684 8.22656 29.9053 9.52083 29.0732 11C28.3337 12.2943 27.8021 13.6117 27.4785 14.9521C27.2012 16.2464 27.0625 17.7949 27.0625 19.5977L23.873 17.1016H34.6201C34.8975 21.3079 34.4814 24.9365 33.3721 27.9873C31.9391 28.4958 30.252 28.75 28.3105 28.75C22.9486 28.75 20.2676 25.8379 20.2676 20.0137C20.2676 15.8997 21.6081 11.9938 24.2891 8.2959C26.9701 4.59798 30.3213 2.03255 34.3428 0.599609ZM14.9287 0.599609L17.5635 3.92773C15.7145 4.94466 14.1429 6.00781 12.8486 7.11719C11.5544 8.22656 10.4912 9.52083 9.65918 11C8.9196 12.2943 8.38802 13.6117 8.06445 14.9521C7.78711 16.2464 7.64844 17.7949 7.64844 19.5977L4.45898 17.1016H15.2061C15.4834 21.3079 15.0674 24.9365 13.958 27.9873C12.5251 28.4958 10.8379 28.75 8.89648 28.75C3.53451 28.75 0.853516 25.8379 0.853516 20.0137C0.853516 15.8997 2.19401 11.9938 4.875 8.2959C7.55599 4.59798 10.9072 2.03255 14.9287 0.599609Z" fill="#346839"/>
</svg>
